<svg width="32" height="32" viewBox="0 0 32 32" xmlns="http://www.w3.org/2000/svg">
  <!-- Background circle -->
  <circle cx="16" cy="16" r="16" fill="#2563EB"/>
  
  <!-- Letter A -->
  <g fill="white">
    <path d="M7 24 L10 14 L12 14 L15 24 L13 24 L12.2 21.5 L9.8 21.5 L9 24 Z"/>
    <rect x="10.2" y="19.5" width="1.6" height="1" fill="white"/>
  </g>
  
  <!-- Letter B -->
  <g fill="white">
    <path d="M17 14 L17 24 L21 24 C22.7 24 24 22.7 24 21 C24 20 23.5 19.1 22.7 18.7 C23.2 18.2 23.5 17.4 23.5 16.5 C23.5 15.1 22.4 14 21 14 Z"/>
    <rect x="19" y="16" width="2" height="1.5" fill="#2563EB"/>
    <rect x="19" y="20.5" width="2.5" height="1.5" fill="#2563EB"/>
  </g>
</svg>