<svg width="32" height="32" viewBox="0 0 32 32" xmlns="http://www.w3.org/2000/svg">
  <!-- Circular background with gradient -->
  <circle cx="16" cy="16" r="16" fill="#2563EB"/>
  
  <!-- Letter A -->
  <path d="M9 24 L11.5 16 L12.5 16 L15 24 L13.5 24 L13 22 L11 22 L10.5 24 Z M11.5 20 L12.5 20 L12 18.5 Z" fill="white"/>
  
  <!-- Letter B -->
  <path d="M17 16 L17 24 L19 24 L19 20.5 L20.5 20.5 C21.3 20.5 22 19.8 22 19 C22 18.2 21.3 17.5 20.5 17.5 L19 17.5 L19 16 Z M19 18.5 L20.5 18.5 C20.8 18.5 21 18.7 21 19 C21 19.3 20.8 19.5 20.5 19.5 L19 19.5 Z" fill="white"/>
  
  <!-- Small QA indicator dot -->
  <circle cx="25" cy="7" r="3" fill="#10B981"/>
  <path d="M23.5 7 L24.5 8 L26.5 6" stroke="white" stroke-width="1" fill="none"/>
</svg>