<svg width="32" height="32" viewBox="0 0 32 32" xmlns="http://www.w3.org/2000/svg">
  <!-- Background -->
  <circle cx="16" cy="16" r="16" fill="#2563EB"/>
  
  <!-- Letter A -->
  <path d="M6 24 L9.5 12 L11.5 12 L15 24 L13 24 L12.1 21 L8.9 21 L8 24 Z M9.5 19 L11.5 19 L10.5 16 Z" fill="white"/>
  
  <!-- Letter B -->
  <path d="M17 12 L17 24 L22 24 C23.7 24 25 22.7 25 21 C25 19.9 24.4 18.9 23.5 18.5 C24.1 18 24.5 17.3 24.5 16.5 C24.5 14.6 23 13 21 13 L17 13 Z M19 15 L21 15 C21.6 15 22 15.4 22 16 C22 16.6 21.6 17 21 17 L19 17 Z M19 19 L22 19 C22.6 19 23 19.4 23 20 C23 20.6 22.6 21 22 21 L19 21 Z" fill="white"/>
</svg>